<?xml version="1.0" standalone="no"?>
<!DOCTYPE svg PUBLIC "-//W3C//DTD SVG 1.1//EN" "http://www.w3.org/Graphics/SVG/1.1/DTD/svg11.dtd">
<svg xmlns="http://www.w3.org/2000/svg" xmlns:xlink="http://www.w3.org/1999/xlink" version="1.1" id="body_1" width="691" height="257">

<defs>
    <clipPath  id="1">

    <path id=""  clip-rule="evenodd" transform="matrix(1 0 0 1 0 0)"  d="M0 193L0 0L0 0L518 0L518 0L518 193L518 193L0 193z" />    </clipPath>
    <clipPath  id="2">

    <path id=""  clip-rule="evenodd" transform="matrix(1 0 0 1 0 0)"  d="M0 0L518 0L518 0L518 193L518 193L0 193z" />    </clipPath>
</defs>

<g transform="matrix(1.3333 0 0 1.3333 0 0)">
	<g clip-path="url(#1)" >
		<g clip-path="url(#2)" >
    <path id=""  transform="matrix(1 0 0 -1 0 193)"  d="M125.7951 109.131294L130.2481 109.142296L130.2481 109.142296L130.2201 120.923294L130.2201 120.923294L125.7691 120.91229C 125.1341 123.589294 124.076096 126.129295 122.6201 128.4693L122.6201 128.4693L125.7611 131.6243L125.7611 131.6243L117.4111 139.9373L117.4111 139.9373L114.270096 136.7803C 111.923096 138.22629 109.3781 139.2733 106.701096 139.8953L106.701096 139.8953L106.6921 144.3493L106.6921 144.3493L94.909096 144.3243L94.909096 144.3243L94.9191 139.8693C 92.2401 139.23529 89.701096 138.1763 87.3641 136.7213L87.3641 136.7213L84.2041 139.8613L84.2041 139.8613L75.8961 131.5133L75.8961 131.5133L79.050095 128.3703C 78.5951 127.6313 78.1941 126.864296 77.8181 126.087296C 73.5821 126.1693 64.3641 126.3063 60.6471 126.0363C 44.155098 124.8353 43.6531 106.88429 43.660095 104.4953L43.660095 104.4953L31.1251 79.8583L31.1251 79.8583L43.6651 79.8583L43.6651 79.8583L43.6651 59.057297L43.6651 59.057297L61.267097 59.057297L61.267097 59.057297L61.267097 47.063297L61.267097 47.063297L64.244095 47.063297L64.244095 47.063297L64.244095 62.035297L64.244095 62.035297L46.643097 62.035297L46.643097 62.035297L46.643097 82.836296L46.643097 82.836296L35.981102 82.836296L35.981102 82.836296L46.6261 103.7613L46.6261 103.7613L46.660095 103.82829L46.660095 103.82829L46.641098 104.2193C 46.6081 104.9443 46.0011 121.9843 60.864098 123.0673C 64.4721 123.32829 72.9591 123.1833 76.6001 123.103294C 76.3481 122.3483 76.1201 121.5833 75.938095 120.80229L75.938095 120.80229L71.4841 120.7913L71.4841 120.7913L71.5101 109.00929L71.5101 109.00929L75.964096 109.020294C 76.2391 107.86929 76.6011 106.740295 77.0311 105.6393L77.0311 105.6393L69.4451 105.6393L69.4451 105.6393L69.4451 110.129295L69.4451 110.129295L67.6221 112.1133C 68.23309 112.9433 68.5771 113.9313 68.5751 114.978294C 68.5731 116.270294 68.0661 117.4853 67.14909 118.3983C 66.2361 119.3073 65.0231 119.8083 63.7221 119.8083C 62.4311 119.8053 61.2161 119.298294 60.303097 118.380295C 59.3901 117.462296 58.8891 116.24629 58.892097 114.95529C 58.8941 113.6633 59.4011 112.449295 60.317097 111.53529C 61.2311 110.6263 62.4441 110.1253 63.733097 110.1253L63.733097 110.1253L63.7451 110.1253C 64.242096 110.1273 64.7191 110.2243 65.1801 110.36929L65.1801 110.36929L66.4671 108.9693L66.4671 108.9693L66.4671 105.6393L66.4671 105.6393L64.0681 105.6393L64.0681 105.6393L64.0681 99.684296L64.0681 99.684296L60.4881 102.17429C 60.524097 102.4163 60.559097 102.658295 60.558098 102.907295C 60.5561 104.201294 60.0491 105.4163 59.1331 106.32829C 58.2201 107.2383 57.0071 107.7383 55.7061 107.7383C 54.414097 107.7353 53.200096 107.228294 52.2871 106.310295C 51.3741 105.393295 50.8721 104.1763 50.8761 102.8863C 50.878098 101.5943 51.3851 100.380295 52.3011 99.46629C 53.215096 98.5573 54.428097 98.0563 55.7171 98.0563L55.7171 98.0563L55.7291 98.0563C 57.0221 98.059296 58.2361 98.56529 59.1471 99.48129L59.1471 99.48129L64.0681 96.0583L64.0681 96.0583L64.0681 94.0383L64.0681 94.0383L54.5841 94.0383C 54.4601 95.1233 53.9981 96.13229 53.213097 96.9143C 52.354095 97.769295 51.141098 98.270294 49.786102 98.324295C 48.494095 98.3213 47.280098 97.81329 46.367096 96.89629C 45.4541 95.978294 44.952095 94.7613 44.9561 93.4713C 44.962097 90.8083 47.1351 88.6413 49.800102 88.6413L49.800102 88.6413L49.809097 88.6413C 51.103096 88.645294 52.3181 89.1513 53.228096 90.0683C 53.5261 90.366295 53.7621 90.7053 53.968098 91.060295L53.968098 91.060295L64.0681 91.060295L64.0681 91.060295L64.0681 88.3443L64.0681 88.3443L58.302097 87.41029L58.302097 87.41029L56.4701 85.3183C 55.8601 85.587296 55.183098 85.7523 54.4591 85.781296C 53.1671 85.7803 51.952095 85.2733 51.0391 84.35629C 50.127098 83.44029 49.6261 82.2233 49.629097 80.9283C 49.6351 78.2653 51.8071 76.0983 54.4731 76.0983L54.4731 76.0983L54.482098 76.0983C 55.774097 76.102295 56.9881 76.60829 57.9011 77.5253C 58.8141 78.4433 59.315098 79.659294 59.3111 80.949295C 59.309097 81.7943 59.074097 82.5943 58.669098 83.3083L58.669098 83.3083L59.837097 84.642296L59.837097 84.642296L64.0681 85.32829L64.0681 85.32829L64.0681 81.324295L64.0681 81.324295L67.4201 81.324295L67.4201 81.324295L67.4201 79.4603L67.4201 79.4603L66.0641 77.73129C 65.8911 77.7493 65.7221 77.781296 65.5461 77.781296C 64.2541 77.7783 63.0401 77.270294 62.127098 76.353294C 61.2141 75.435295 60.7131 74.21829 60.7161 72.9283C 60.7221 70.2653 62.8951 68.0983 65.5601 68.0983L65.5601 68.0983L65.5691 68.0983C 66.8621 68.102295 68.0771 68.60829 68.9891 69.5253C 69.9021 70.4433 70.4021 71.66029 70.3981 72.949295C 70.3961 74.24329 69.8901 75.4583 68.9731 76.37129C 68.9371 76.407295 68.8931 76.4313 68.856094 76.46629L68.856094 76.46629L70.3981 78.4333L70.3981 78.4333L70.3981 81.324295L70.3981 81.324295L74.7341 81.324295L74.7341 81.324295L74.7281 70.8173C 74.009094 70.5823 73.343094 70.200294 72.7931 69.6483C 71.8801 68.7303 71.3791 67.5133 71.382095 66.2233C 71.3881 63.560295 73.5611 61.393295 76.2261 61.393295L76.2261 61.393295L76.2351 61.393295C 77.5281 61.397297 78.7431 61.903297 79.6551 62.820297C 80.56709 63.738297 81.0681 64.9543 81.0641 66.24429C 81.0621 67.5383 80.5571 68.753296 79.6401 69.6633C 79.091095 70.211296 78.4261 70.590294 77.70509 70.822296L77.70509 70.822296L77.7111 81.324295L77.7111 81.324295L80.6681 81.324295L80.6681 81.324295L80.6681 75.5843L80.6681 75.5843L82.5921 73.66029C 82.2491 72.9853 82.048096 72.2453 82.050095 71.46829C 82.0541 69.5703 83.1691 67.9413 84.7681 67.1523L84.7681 67.1523L84.7681 47.063297L84.7681 47.063297L87.7451 47.063297L87.7451 47.063297L87.7451 66.7243C 88.716095 66.89629 89.6111 67.352295 90.3221 68.06529C 91.2351 68.98329 91.7361 70.199295 91.7321 71.489296C 91.729095 72.782295 91.2231 73.9973 90.3071 74.91029C 89.3931 75.8213 88.1811 76.322296 86.8791 76.322296C 86.103096 76.3203 85.3641 76.116295 84.69209 75.770294L84.69209 75.770294L83.6461 76.8173L83.6461 76.8173L83.6461 81.324295L83.6461 81.324295L85.9751 81.324295L85.9751 81.324295L88.3791 81.324295L88.3791 81.324295L95.341095 81.324295L95.341095 81.324295L96.6801 79.9853C 96.257095 79.2643 95.9981 78.434296 96.0001 77.5383C 96.006096 74.8763 98.1791 72.7103 100.8441 72.7103L100.8441 72.7103L100.8521 72.7103C 102.145096 72.713295 103.3601 73.2193 104.272095 74.1353C 105.1851 75.0533 105.6861 76.269295 105.6821 77.559296C 105.6801 78.853294 105.173096 80.0683 104.257095 80.98129C 103.3431 81.8913 102.1301 82.392296 100.8291 82.392296C 100.1421 82.3913 99.4901 82.240295 98.897095 81.979294L98.897095 81.979294L96.5741 84.3023L96.5741 84.3023L88.3791 84.3023L88.3791 84.3023L88.3791 92.616295C 90.4671 91.4463 92.6951 90.5803 95.0311 90.0383L95.0311 90.0383L95.0411 85.5853L95.0411 85.5853L106.8231 85.6103L106.8231 85.6103L106.813095 90.06529C 109.492096 90.697296 112.0321 91.755295 114.369095 93.213295L114.369095 93.213295L117.5231 90.0693L117.5231 90.0693L125.8361 98.422295L125.8361 98.422295L122.6821 101.562294C 124.1251 103.906296 125.1721 106.451294 125.7951 109.131294M65.0541 113.6533C 64.7021 113.30029 64.2351 113.104294 63.7381 113.103294L63.7381 113.103294L63.733097 113.103294C 63.2371 113.103294 62.7701 113.296295 62.4181 113.645294C 62.066097 113.99629 61.871098 114.465294 61.8691 114.963295C 61.8681 115.4603 62.0611 115.9283 62.412098 116.281296C 62.7641 116.63429 63.2311 116.8293 63.7341 116.83029C 64.231094 116.83029 64.6971 116.6373 65.048096 116.28729C 65.4011 115.936295 65.5961 115.4693 65.5971 114.9703C 65.5981 114.4743 65.4061 114.00729 65.0541 113.6533M57.039097 101.5833C 56.6861 101.23029 56.219097 101.034294 55.7221 101.033295L55.7221 101.033295L55.7171 101.033295C 55.2211 101.033295 54.754097 101.226295 54.4031 101.575294C 54.0501 101.9273 53.8551 102.395294 53.8541 102.893295C 53.8521 103.3903 54.045097 103.8593 54.3961 104.212296C 54.747097 104.56529 55.2161 104.7603 55.718098 104.7613C 56.2141 104.7613 56.6811 104.5683 57.032097 104.21829C 57.385098 103.866295 57.579098 103.3993 57.580097 102.9023C 57.5821 102.4053 57.3891 101.936295 57.039097 101.5833M51.119095 92.1683C 50.767097 91.8153 50.299095 91.62029 49.800102 91.61929C 48.7731 91.61929 47.935097 92.45329 47.933098 93.478294C 47.9321 93.976295 48.1251 94.4443 48.476097 94.797295C 48.827095 95.1503 49.295097 95.3453 49.7931 95.3463L49.7931 95.3463L49.798096 95.3463C 50.294098 95.3463 50.7611 95.1533 51.1121 94.8023C 51.465096 94.451294 51.660095 93.9843 51.660095 93.4863C 51.6621 92.989296 51.4701 92.52129 51.119095 92.1683M55.7921 79.6253C 55.4391 79.27229 54.9721 79.07729 54.4731 79.076294C 53.4461 79.076294 52.6081 79.91029 52.606102 80.935295C 52.605095 81.434296 52.798096 81.9033 53.1491 82.256294C 53.4991 82.6083 53.9671 82.8023 54.4661 82.8033L54.4661 82.8033L54.4741 82.8033C 54.968098 82.8033 55.433098 82.6123 55.7841 82.2633C 56.1381 81.91129 56.3321 81.4433 56.3331 80.9443C 56.3351 80.447296 56.142097 79.978294 55.7921 79.6253M66.8781 71.6253C 66.5271 71.27229 66.0591 71.0773 65.5601 71.076294C 64.5331 71.076294 63.6961 71.91029 63.6941 72.935295C 63.692097 73.4323 63.886097 73.9003 64.2371 74.253296C 64.589096 74.6073 65.0561 74.80229 65.5531 74.8033L65.5531 74.8033L65.5581 74.8033C 66.0541 74.8033 66.5211 74.6113 66.8721 74.2613C 67.2251 73.909294 67.4201 73.4413 67.4201 72.9443C 67.422104 72.4463 67.229095 71.978294 66.8781 71.6253M85.5711 72.7943C 85.9221 73.1483 86.3901 73.34329 86.8861 73.3443L86.8861 73.3443L86.8921 73.3443C 87.3881 73.3443 87.853096 73.1523 88.2051 72.8013C 88.5581 72.449295 88.7531 71.9823 88.7541 71.4843C 88.7551 70.9863 88.563095 70.518295 88.2121 70.1663C 87.8601 69.8143 87.3921 69.61829 86.8931 69.617294C 85.867096 69.617294 85.0291 70.450294 85.0271 71.475296C 85.0261 71.9723 85.2191 72.4413 85.5711 72.7943M100.8361 79.4153L100.8421 79.4153C 101.3381 79.4153 101.8041 79.2223 102.1551 78.87129C 102.5091 78.520294 102.703094 78.0513 102.7041 77.5533C 102.7051 77.0563 102.5131 76.588295 102.1621 76.2373C 101.8101 75.88429 101.3421 75.68829 100.8441 75.687294C 99.8171 75.687294 98.979095 76.52129 98.9771 77.545296C 98.9751 78.573296 99.8091 79.41229 100.8361 79.4153M78.0861 66.2383C 78.088104 65.741295 77.895096 65.2733 77.5451 64.920296C 77.1931 64.5673 76.7241 64.3723 76.2261 64.3703C 75.1991 64.3703 74.3621 65.20529 74.3601 66.23129C 74.35809 66.727295 74.5511 67.1953 74.9031 67.548294C 75.2551 67.9023 75.7221 68.0973 76.2191 68.0983L76.2191 68.0983L76.2241 68.0983C 76.7211 68.0983 77.1871 67.9053 77.53909 67.5543C 77.8911 67.2043 78.0851 66.7373 78.0861 66.2383M85.4011 84.3023L67.0451 84.3023L67.0451 84.3023L67.0451 102.66129L67.0451 102.66129L85.4011 102.66129zM117.5151 94.2803L114.7361 97.04929L114.7361 97.04929L113.7171 96.3453C 111.0951 94.5303 108.1791 93.3163 105.050095 92.7353L105.050095 92.7353L103.8301 92.50829L103.8301 92.50829L103.839096 88.5803L103.839096 88.5803L98.0121 88.5703L98.0121 88.5703L98.0031 92.49329L98.0031 92.49329L96.784096 92.71629C 93.7621 93.2653 90.938095 94.41029 88.3791 96.1073L88.3791 96.1073L88.3791 105.6393L88.3791 105.6393L80.2631 105.6393C 79.519104 107.283295 78.964096 109.0103 78.632095 110.7863L78.632095 110.7863L78.4031 112.0023L78.4031 112.0023L74.481094 111.99429L74.481094 111.99429L74.468094 117.8213L74.468094 117.8213L78.3931 117.8293L78.3931 117.8293L78.6141 119.048294C 79.1871 122.1833 80.3891 125.1053 82.1861 127.73329L82.1861 127.73329L82.8851 128.7563L82.8851 128.7563L80.106094 131.5223L80.106094 131.5223L84.216095 135.65129L84.216095 135.65129L87.0001 132.8853L87.0001 132.8853L88.0181 133.5893C 90.6361 135.40129 93.5521 136.6153 96.6841 137.1993L96.6841 137.1993L97.9031 137.4263L97.9031 137.4263L97.8931 141.3543L97.8931 141.3543L103.7201 141.3633L103.7201 141.3633L103.728096 137.4413L103.728096 137.4413L104.9481 137.21829C 108.076096 136.6483 110.9981 135.4473 113.6341 133.6463L113.6341 133.6463L114.6561 132.9473L114.6561 132.9473L117.4211 135.72629L117.4211 135.72629L121.550095 131.6153L121.550095 131.6153L118.784096 128.8363L118.784096 128.8363L119.4871 127.8183C 121.3001 125.1933 122.5161 122.2763 123.1001 119.1483L123.1001 119.1483L123.3281 117.9303L123.3281 117.9303L127.2501 117.93829L127.2501 117.93829L127.2631 112.1123L127.2631 112.1123L123.340096 112.101295L123.340096 112.101295L123.119095 110.88429C 122.5471 107.7503 121.3451 104.82829 119.5461 102.199295L119.5461 102.199295L118.8471 101.1763L118.8471 101.1763L121.6251 98.41029z" stroke="none" fill="#000000" fill-rule="nonzero" />
    <path id=""  transform="matrix(1 0 0 -1 0 193)"  d="M100.8228 134.1055C 95.7118 134.0945 90.9098 132.0925 87.3018 128.4695C 83.6958 124.8465 81.7168 120.0355 81.7278 114.9225L81.7278 114.9225L81.7288 114.6405L81.7288 114.6405L84.7068 114.6485L84.7068 114.6485L84.705795 114.9295C 84.6958 119.2465 86.3678 123.3095 89.412796 126.3695C 92.4588 129.4285 96.5128 131.1185 100.8658 131.1275C 109.7568 131.1275 117.0068 123.8945 117.0268 115.0045C 117.036804 110.6875 115.3648 106.6245 112.3198 103.5645C 109.2738 100.5055 105.218796 98.8155 100.9038 98.8065L100.9038 98.8065L100.6218 98.8065L100.6218 98.8065L100.6278 95.8285L100.6278 95.8285L100.9088 95.8295C 106.0218 95.8395 110.8228 97.8415 114.4298 101.4645C 118.036804 105.0875 120.0168 109.8985 120.0048 115.0115C 119.980804 125.5405 111.3948 134.1055 100.8228 134.1055" stroke="none" fill="#000000" fill-rule="nonzero" />
    <path id=""  transform="matrix(1 0 0 -1 0 193)"  d="M100.8946 102.2187C 104.2996 102.2267 107.497604 103.5597 109.900604 105.9727C 112.3046 108.386696 113.622604 111.5927 113.6136 114.997696C 113.5976 122.0097 107.8796 127.7147 100.8376 127.7147C 97.4306 127.705696 94.2316 126.372696 91.8306 123.9597C 89.4296 121.5477 88.1116 118.3437 88.1196 114.9367C 88.135605 107.9237 93.8536 102.2187 100.8666 102.2187zM99.3516 105.3257C 95.1726 105.9817 91.8676 109.2937 91.2226 113.4777L91.2226 113.4777L95.9486 113.4777L95.9486 113.4777L95.9486 116.455696L95.9486 116.455696L91.220604 116.455696C 91.5306 118.4907 92.4626 120.372696 93.941605 121.8607C 95.4236 123.3477 97.303604 124.2887 99.3516 124.6077L99.3516 124.6077L99.3516 119.8577L99.3516 119.8577L102.3296 119.8577L102.3296 119.8577L102.3296 124.6147C 106.5326 123.9777 109.8626 120.6567 110.510605 116.455696L110.510605 116.455696L105.7326 116.455696L105.7326 116.455696L105.7326 113.4777L105.7326 113.4777L110.5126 113.4777C 110.2036 111.442696 109.2706 109.5607 107.7906 108.0747C 106.2936 106.5697 104.3906 105.623695 102.3296 105.3157L102.3296 105.3157L102.3296 110.0747L102.3296 110.0747L99.3516 110.0747z" stroke="none" fill="#000000" fill-rule="nonzero" />
    <path id=""  transform="matrix(1 0 0 -1 0 193)"  d="M82.646 99.904L69.802 99.904L69.802 99.904L69.802 87.06L69.802 87.06L82.646 87.06zM79.667 90.038L72.779 90.038L72.779 90.038L72.779 96.926L72.779 96.926L79.667 96.926z" stroke="none" fill="#000000" fill-rule="nonzero" />
    <path id=""  transform="matrix(1 0 0 -1 0 193)"  d="M172.8724 114.845505C 172.8724 112.4795 172.1444 108.957504 170.6894 107.5025C 169.2334 106.0475 167.3134 105.3195 164.9284 105.3195L164.9284 105.3195L144.8104 105.3195L144.8104 105.3195L144.8104 145.65451L144.8104 145.65451L164.9284 145.65451C 167.3134 145.65451 169.2334 144.9275 170.6894 143.4715C 172.1444 142.01651 172.8724 140.1055 172.8724 137.7375zM163.4234 114.1825C 164.0614 114.1825 164.52141 114.32851 164.8034 114.6195C 165.0844 114.9105 165.2264 115.3755 165.2264 116.013504L165.2264 116.013504L165.2264 137.0075C 165.2264 137.64551 165.0844 138.1085 164.8034 138.4015C 164.52141 138.6925 164.0614 138.8365 163.4234 138.8365L163.4234 138.8365L153.4074 138.8365L153.4074 138.8365L153.4074 114.1825z" stroke="none" fill="#000000" fill-rule="nonzero" />
    <path id=""  transform="matrix(1 0 0 -1 0 193)"  d="M179.1236 145.6549L207.10559 145.6549L207.10559 145.6549L207.1266 138.1409L207.1266 138.1409L187.7416 138.1409L187.7416 138.1409L187.7416 130.99191L187.7416 130.99191L203.04959 130.9989L203.04959 130.9989L203.04959 122.68291L203.04959 122.68291L187.7416 122.6759L187.7416 122.6759L187.7416 115.35791L187.7416 115.35791L207.1266 115.35791L207.1266 115.35791L207.1266 105.31891L207.1266 105.31891L179.14459 105.31891z" stroke="none" fill="#000000" fill-rule="nonzero" />
    <path id=""  transform="matrix(1 0 0 -1 0 193)"  d="M211.4863 145.6549L239.46829 145.6549L239.46829 145.6549L239.4893 138.1409L239.4893 138.1409L220.1043 138.1409L220.1043 138.1409L220.1043 130.99191L220.1043 130.99191L235.4123 130.9989L235.4123 130.9989L235.4123 122.68291L235.4123 122.68291L220.1043 122.6759L220.1043 122.6759L220.1043 115.35791L220.1043 115.35791L239.4893 115.35791L239.4893 115.35791L239.4893 105.31891L239.4893 105.31891L211.5073 105.31891z" stroke="none" fill="#000000" fill-rule="nonzero" />
    <path id=""  transform="matrix(1 0 0 -1 0 193)"  d="M250.8555 119.7702L250.8555 105.3192L250.8555 105.3192L243.8695 105.3192L243.8695 105.3192L243.84851 145.6552L243.84851 145.6552L262.4405 145.6552C 264.80652 145.6552 266.7175 144.9272 268.1735 143.4722C 269.6285 142.0162 270.3555 140.1052 270.3555 137.7382L270.3555 137.7382L270.3765 127.7142C 270.3765 125.3282 269.6485 123.4082 268.1935 121.9532C 266.7385 120.4982 264.8275 119.7702 262.4605 119.7702zM250.8455 128.5672L262.4845 128.5672C 263.1225 128.5672 263.58252 128.7132 263.8645 129.0042C 264.1465 129.2952 264.2865 129.7602 264.2865 130.3982L264.2865 130.3982L264.2765 137.0072C 264.2765 137.6452 264.1355 138.10919 263.8545 138.4012C 263.5725 138.6922 263.11252 138.8362 262.4735 138.8362L262.4735 138.8362L250.83551 138.8362z" stroke="none" fill="#000000" fill-rule="nonzero" />
    <path id=""  transform="matrix(1 0 0 -1 0 193)"  d="M174.4836 113.235C 174.4836 110.869 173.7556 108.958 172.29959 107.502C 170.84459 106.047005 168.92459 105.319 166.5396 105.319L166.5396 105.319L148.0316 105.319L148.0316 105.319L148.0316 143.348L148.0316 143.348L166.5396 143.348C 168.92459 143.348 170.84459 142.62 172.29959 141.16501C 173.7556 139.709 174.4836 137.798 174.4836 135.431zM165.6946 112.136C 166.3326 112.136 166.7926 112.282005 167.0746 112.573C 167.35559 112.864 167.49759 113.329 167.49759 113.967L167.49759 113.967L167.49759 134.7C 167.49759 135.338 167.35559 135.802 167.0746 136.094C 166.7926 136.38501 166.3326 136.53 165.6946 136.53L165.6946 136.53L155.0186 136.53L155.0186 136.53L155.0186 112.136z" stroke="none" fill="#29589B" fill-rule="nonzero" />
    <path id=""  transform="matrix(1 0 0 -1 0 193)"  d="M182.3663 143.3481L207.1273 143.3481L207.1273 143.3481L207.1273 136.5301L207.1273 136.5301L189.3523 136.5301L189.3523 136.5301L189.3523 127.770096L189.3523 127.770096L203.0713 127.770096L203.0713 127.770096L203.0713 121.065094L203.0713 121.065094L189.3523 121.065094L189.3523 121.065094L189.3523 112.1361L189.3523 112.1361L207.1273 112.1361L207.1273 112.1361L207.1273 105.3191L207.1273 105.3191L182.3663 105.3191z" stroke="none" fill="#29589B" fill-rule="nonzero" />
    <path id=""  transform="matrix(1 0 0 -1 0 193)"  d="M214.7289 143.3481L239.4899 143.3481L239.4899 143.3481L239.4899 136.5301L239.4899 136.5301L221.7149 136.5301L221.7149 136.5301L221.7149 127.770096L221.7149 127.770096L235.4339 127.770096L235.4339 127.770096L235.4339 121.065094L235.4339 121.065094L221.7149 121.065094L221.7149 121.065094L221.7149 112.1361L221.7149 112.1361L239.4899 112.1361L239.4899 112.1361L239.4899 105.3191L239.4899 105.3191L214.7289 105.3191z" stroke="none" fill="#29589B" fill-rule="nonzero" />
    <path id=""  transform="matrix(1 0 0 -1 0 193)"  d="M254.0773 119.77039L254.0773 105.3194L254.0773 105.3194L247.09131 105.3194L247.09131 105.3194L247.09131 143.34839L247.09131 143.34839L265.6823 143.34839C 268.0483 143.34839 269.9603 142.62039 271.4153 141.16539C 272.8703 139.7094 273.5983 137.7984 273.5983 135.4314L273.5983 135.4314L273.5983 127.713394C 273.5983 125.32739 272.8703 123.408394 271.4153 121.9534C 269.9603 120.4974 268.0483 119.77039 265.6823 119.77039zM254.0773 126.4454L264.8093 126.4454C 265.4483 126.4454 265.9083 126.5914 266.1903 126.88239C 266.4713 127.17339 266.6123 127.6384 266.6123 128.2764L266.6123 128.2764L266.6123 134.7004C 266.6123 135.3384 266.4713 135.8024 266.1903 136.09439C 265.9083 136.38539 265.4483 136.52939 264.8093 136.52939L264.8093 136.52939L254.0773 136.52939z" stroke="none" fill="#29589B" fill-rule="nonzero" />
    <path id=""  transform="matrix(1 0 0 -1 0 193)"  d="M249.9594 87.7559L256.9454 87.7559L256.9454 87.7559L256.9674 47.4199L256.9674 47.4199L249.9814 47.4199z" stroke="none" fill="#000000" fill-rule="nonzero" />
    <path id=""  transform="matrix(1 0 0 -1 0 193)"  d="M302.5377 85.449L327.29868 85.449L327.29868 85.449L327.29868 78.631L327.29868 78.631L309.52368 78.631L309.52368 78.631L309.52368 69.870995L309.52368 69.870995L323.24268 69.870995L323.24268 69.870995L323.24268 63.165997L323.24268 63.165997L309.52368 63.165997L309.52368 63.165997L309.52368 54.237L309.52368 54.237L327.29868 54.237L327.29868 54.237L327.29868 47.42L327.29868 47.42L302.5377 47.42z" stroke="none" fill="#000000" fill-rule="nonzero" />
    <path id=""  transform="matrix(1 0 0 -1 0 193)"  d="M335.294 85.449L360.055 85.449L360.055 85.449L360.055 78.631L360.055 78.631L342.28 78.631L342.28 78.631L342.28 69.870995L342.28 69.870995L355.999 69.870995L355.999 69.870995L355.999 63.165997L355.999 63.165997L342.28 63.165997L342.28 63.165997L342.28 54.237L342.28 54.237L360.055 54.237L360.055 54.237L360.055 47.42L360.055 47.42L335.294 47.42z" stroke="none" fill="#000000" fill-rule="nonzero" />
    <path id=""  transform="matrix(1 0 0 -1 0 193)"  d="M393.07968 64.2928C 391.9997 62.9228 390.5397 62.048798 388.69968 61.6728L388.69968 61.6728L395.9947 47.4198L395.9947 47.4198L388.33368 47.4198L388.33368 47.4198L381.3757 61.4768L381.3757 61.4768L375.0377 61.4768L375.0377 61.4768L375.0377 47.4198L375.0377 47.4198L368.0517 47.4198L368.0517 47.4198L368.0307 87.7558L368.0307 87.7558L386.7637 87.7558C 389.1287 87.7558 391.04068 87.0278 392.4957 85.5728C 393.9517 84.1168 394.67868 82.205795 394.67868 79.8388L394.67868 79.8388L394.69968 69.3918C 394.69968 67.3638 394.1597 65.663795 393.07968 64.2928M375.0377 67.8138L385.91068 67.8138C 386.54968 67.8138 387.0087 67.9598 387.29068 68.25079C 387.5727 68.541794 387.71268 69.0068 387.71268 69.6448L387.71268 69.6448L387.6927 79.107796C 387.6927 79.7458 387.5517 80.20979 387.2707 80.5018C 386.98868 80.7928 386.5287 80.9378 385.88968 80.9378L385.88968 80.9378L375.0167 80.9378z" stroke="none" fill="#000000" fill-rule="nonzero" />
    <path id=""  transform="matrix(1 0 0 -1 0 193)"  d="M403.886 87.7559L410.873 87.7559L410.873 87.7559L410.89297 47.4199L410.89297 47.4199L403.90598 47.4199z" stroke="none" fill="#000000" fill-rule="nonzero" />
    <path id=""  transform="matrix(1 0 0 -1 0 193)"  d="M148.0319 85.449L172.79291 85.449L172.79291 85.449L172.79291 78.631L172.79291 78.631L155.01791 78.631L155.01791 78.631L155.01791 69.870995L155.01791 69.870995L168.73691 69.870995L168.73691 69.870995L168.73691 63.165997L168.73691 63.165997L155.01791 63.165997L155.01791 63.165997L155.01791 54.237L155.01791 54.237L172.79291 54.237L172.79291 54.237L172.79291 47.42L172.79291 47.42L148.0319 47.42z" stroke="none" fill="#FF0000" fill-rule="nonzero" />
    <path id=""  transform="matrix(1 0 0 -1 0 193)"  d="M177.5471 87.7559L186.9591 87.7649L186.9591 87.7649L188.0841 85.4489L188.0841 85.4489L198.6651 59.3079L198.6651 59.3079L198.6461 87.7559L198.6461 87.7559L208.8721 87.7569L208.8721 87.7569L208.87311 85.4489L208.87311 85.4489L205.6521 47.4199L205.6521 47.4199L198.3271 47.4199L198.3271 47.4199L184.5531 73.5339L184.5531 73.5339L184.5531 47.4199L184.5531 47.4199L177.56711 47.4199z" stroke="none" fill="#000000" fill-rule="nonzero" />
    <path id=""  transform="matrix(1 0 0 -1 0 193)"  d="M180.7883 85.449L188.0843 85.449L188.0843 85.449L201.8873 59.307L201.8873 59.307L201.8873 85.449L201.8873 85.449L208.87329 85.449L208.87329 85.449L208.87329 47.42L208.87329 47.42L201.5493 47.42L201.5493 47.42L187.77429 73.533L187.77429 73.533L187.77429 47.42L187.77429 47.42L180.7883 47.42z" stroke="none" fill="#29589B" fill-rule="nonzero" />
    <path id=""  transform="matrix(1 0 0 -1 0 193)"  d="M266.1396 87.7559L275.55157 87.7649L275.55157 87.7649L276.67657 85.4489L276.67657 85.4489L287.2576 59.3079L287.2576 59.3079L287.2386 87.7559L287.2386 87.7559L297.4646 87.7569L297.4646 87.7569L297.46558 85.4489L297.46558 85.4489L294.2446 47.4199L294.2446 47.4199L286.9196 47.4199L286.9196 47.4199L273.1456 73.5339L273.1456 73.5339L273.1456 47.4199L273.1456 47.4199L266.15958 47.4199z" stroke="none" fill="#000000" fill-rule="nonzero" />
    <path id=""  transform="matrix(1 0 0 -1 0 193)"  d="M269.3808 85.449L276.6768 85.449L276.6768 85.449L290.4798 59.307L290.4798 59.307L290.4798 85.449L290.4798 85.449L297.4658 85.449L297.4658 85.449L297.4658 47.42L297.4658 47.42L290.14178 47.42L290.14178 47.42L276.3678 73.533L276.3678 73.533L276.3678 47.42L276.3678 47.42L269.3808 47.42z" stroke="none" fill="#29589B" fill-rule="nonzero" />
    <path id=""  transform="matrix(1 0 0 -1 0 193)"  d="M420.0812 87.7567L429.4932 87.7657L429.4932 87.7657L430.6182 85.4497L430.6182 85.4497L441.19922 59.3087L441.19922 59.3087L441.1802 87.7567L441.1802 87.7567L451.40622 87.7577L451.40622 87.7577L451.4072 85.4497L451.4072 85.4497L448.18622 47.4207L448.18622 47.4207L440.8612 47.4207L440.8612 47.4207L427.08722 73.5347L427.08722 73.5347L427.08722 47.4207L427.08722 47.4207L420.1012 47.4207z" stroke="none" fill="#000000" fill-rule="nonzero" />
    <path id=""  transform="matrix(1 0 0 -1 0 193)"  d="M423.3225 85.4499L430.6185 85.4499L430.6185 85.4499L444.4215 59.3079L444.4215 59.3079L444.4215 85.4499L444.4215 85.4499L451.4075 85.4499L451.4075 85.4499L451.4075 47.4209L451.4075 47.4209L444.0835 47.4209L444.0835 47.4209L430.3085 73.5339L430.3085 73.5339L430.3085 47.4209L430.3085 47.4209L423.3225 47.4209z" stroke="none" fill="#29589B" fill-rule="nonzero" />
    <path id=""  transform="matrix(1 0 0 -1 0 193)"  d="M220.9152 56.0681C 220.9152 55.4301 221.05621 54.9651 221.3372 54.6741C 221.6192 54.3831 222.07921 54.2371 222.7182 54.2371L222.7182 54.2371L233.84421 54.2371L233.84421 54.2371L233.84421 62.3221L233.84421 62.3221L227.6472 62.3221L227.6472 62.3221L227.6472 68.9411L227.6472 68.9411L240.7742 68.9411L240.7742 68.9411L240.7742 55.3361C 240.7742 52.9701 240.04721 51.0591 238.5912 49.6031C 237.1362 48.1481 235.21521 47.4201 232.8312 47.4201L232.8312 47.4201L221.8452 47.4201C 219.47821 47.4201 217.5672 48.1481 216.11221 49.6031C 214.6562 51.0591 213.9292 52.9701 213.9292 55.3361L213.9292 55.3361L213.9292 79.839096C 213.9292 82.2061 214.6562 84.117096 216.11221 85.5731C 217.5672 87.0281 219.47821 87.7561 221.8452 87.7561L221.8452 87.7561L234.43721 87.7561C 236.82121 87.7561 238.7422 87.0281 240.19821 85.5731C 241.65321 84.117096 242.38121 82.2061 242.38121 79.839096L242.38121 79.839096L242.38121 73.645096L242.38121 73.645096L233.78821 73.645096L233.78821 73.645096L233.78821 79.1081C 233.78821 79.7461 233.6472 80.2101 233.36621 80.5021C 233.08421 80.7931 232.6242 80.9371 231.9852 80.9371L231.9852 80.9371L222.7182 80.9371C 222.07921 80.9371 221.6192 80.7931 221.3372 80.5021C 221.05621 80.2101 220.9152 79.7461 220.9152 79.1081z" stroke="none" fill="#000000" fill-rule="nonzero" />
    <path id=""  transform="matrix(1 0 0 -1 0 193)"  d="M224.1367 56.0681C 224.1367 55.4301 224.27771 54.9651 224.5587 54.6741C 224.8407 54.3831 225.3007 54.2371 225.9397 54.2371L225.9397 54.2371L237.0657 54.2371L237.0657 54.2371L237.0657 62.3221L237.0657 62.3221L230.8687 62.3221L230.8687 62.3221L230.8687 68.9411L230.8687 68.9411L243.9957 68.9411L243.9957 68.9411L243.9957 55.3361C 243.9957 52.9701 243.2687 51.0591 241.8127 49.6031C 240.3577 48.1481 238.4367 47.4201 236.0527 47.4201L236.0527 47.4201L225.0667 47.4201C 222.6997 47.4201 220.7887 48.1481 219.33371 49.6031C 217.8777 51.0591 217.1507 52.9701 217.1507 55.3361L217.1507 55.3361L217.1507 77.532104C 217.1507 79.8991 217.8777 81.810104 219.33371 83.2661C 220.7887 84.7211 222.6997 85.4491 225.0667 85.4491L225.0667 85.4491L236.0527 85.4491C 238.4367 85.4491 240.3577 84.7211 241.8127 83.2661C 243.2687 81.810104 243.9957 79.8991 243.9957 77.532104L243.9957 77.532104L243.9957 73.645096L243.9957 73.645096L237.0097 73.645096L237.0097 73.645096L237.0097 76.8011C 237.0097 77.4391 236.8687 77.9031 236.5877 78.1951C 236.30571 78.4861 235.8457 78.6311 235.2067 78.6311L235.2067 78.6311L225.9397 78.6311C 225.3007 78.6311 224.8407 78.4861 224.5587 78.1951C 224.27771 77.9031 224.1367 77.4391 224.1367 76.8011z" stroke="none" fill="#29589B" fill-rule="nonzero" />
    <path id=""  transform="matrix(1 0 0 -1 0 193)"  d="M463.3346 56.0681C 463.3346 55.4301 463.4756 54.9651 463.7566 54.6741C 464.0386 54.3831 464.4986 54.2371 465.1376 54.2371L465.1376 54.2371L476.26358 54.2371L476.26358 54.2371L476.26358 62.3221L476.26358 62.3221L470.0666 62.3221L470.0666 62.3221L470.0666 68.9411L470.0666 68.9411L483.1936 68.9411L483.1936 68.9411L483.1936 55.3361C 483.1936 52.9701 482.46658 51.0591 481.0106 49.6031C 479.5556 48.1481 477.63458 47.4201 475.2506 47.4201L475.2506 47.4201L464.2646 47.4201C 461.89758 47.4201 459.9866 48.1481 458.5316 49.6031C 457.0756 51.0591 456.3486 52.9701 456.3486 55.3361L456.3486 55.3361L456.3486 79.839096C 456.3486 82.2061 457.0756 84.117096 458.5316 85.5731C 459.9866 87.0281 461.89758 87.7561 464.2646 87.7561L464.2646 87.7561L476.8566 87.7561C 479.2406 87.7561 481.1616 87.0281 482.61758 85.5731C 484.0726 84.117096 484.8006 82.2061 484.8006 79.839096L484.8006 79.839096L484.8006 73.645096L484.8006 73.645096L476.20758 73.645096L476.20758 73.645096L476.20758 79.1081C 476.20758 79.7461 476.0666 80.2101 475.78558 80.5021C 475.5036 80.7931 475.04358 80.9371 474.4046 80.9371L474.4046 80.9371L465.1376 80.9371C 464.4986 80.9371 464.0386 80.7931 463.7566 80.5021C 463.4756 80.2101 463.3346 79.7461 463.3346 79.1081z" stroke="none" fill="#000000" fill-rule="nonzero" />
    <path id=""  transform="matrix(1 0 0 -1 0 193)"  d="M466.5561 56.0681C 466.5561 55.4301 466.69708 54.9651 466.9781 54.6741C 467.2601 54.3831 467.7201 54.2371 468.3591 54.2371L468.3591 54.2371L479.48508 54.2371L479.48508 54.2371L479.48508 62.3221L479.48508 62.3221L473.2881 62.3221L473.2881 62.3221L473.2881 68.9411L473.2881 68.9411L486.4151 68.9411L486.4151 68.9411L486.4151 55.3361C 486.4151 52.9701 485.68808 51.0591 484.2321 49.6031C 482.7771 48.1481 480.85608 47.4201 478.4721 47.4201L478.4721 47.4201L467.48608 47.4201C 465.11908 47.4201 463.2081 48.1481 461.75308 49.6031C 460.2971 51.0591 459.5691 52.9701 459.5691 55.3361L459.5691 55.3361L459.5691 77.532104C 459.5691 79.8991 460.2971 81.810104 461.75308 83.2661C 463.2081 84.7211 465.11908 85.4491 467.48608 85.4491L467.48608 85.4491L478.4721 85.4491C 480.85608 85.4491 482.7771 84.7211 484.2321 83.2661C 485.68808 81.810104 486.4151 79.8991 486.4151 77.532104L486.4151 77.532104L486.4151 73.645096L486.4151 73.645096L479.42908 73.645096L479.42908 73.645096L479.42908 76.8011C 479.42908 77.4391 479.2881 77.9031 479.00708 78.1951C 478.7251 78.4861 478.26508 78.6311 477.6261 78.6311L477.6261 78.6311L468.3591 78.6311C 467.7201 78.6311 467.2601 78.4861 466.9781 78.1951C 466.69708 77.9031 466.5561 77.4391 466.5561 76.8011z" stroke="none" fill="#29589B" fill-rule="nonzero" />
    <path id=""  transform="matrix(1 0 0 -1 0 193)"  d="M253.181 87.7559L260.167 87.7559L260.167 87.7559L260.189 47.4199L260.189 47.4199L253.203 47.4199z" stroke="none" fill="#29589B" fill-rule="nonzero" />
    <path id=""  transform="matrix(1 0 0 -1 0 193)"  d="M305.7592 85.449L330.52017 85.449L330.52017 85.449L330.52017 78.631L330.52017 78.631L312.74518 78.631L312.74518 78.631L312.74518 69.870995L312.74518 69.870995L326.46417 69.870995L326.46417 69.870995L326.46417 63.165997L326.46417 63.165997L312.74518 63.165997L312.74518 63.165997L312.74518 54.237L312.74518 54.237L330.52017 54.237L330.52017 54.237L330.52017 47.42L330.52017 47.42L305.7592 47.42z" stroke="none" fill="#FF0000" fill-rule="nonzero" />
    <path id=""  transform="matrix(1 0 0 -1 0 193)"  d="M338.5156 85.449L363.27658 85.449L363.27658 85.449L363.27658 78.631L363.27658 78.631L345.5016 78.631L345.5016 78.631L345.5016 69.870995L345.5016 69.870995L359.22058 69.870995L359.22058 69.870995L359.22058 63.165997L359.22058 63.165997L345.5016 63.165997L345.5016 63.165997L345.5016 54.237L345.5016 54.237L363.27658 54.237L363.27658 54.237L363.27658 47.42L363.27658 47.42L338.5156 47.42z" stroke="none" fill="#FF0000" fill-rule="nonzero" />
    <path id=""  transform="matrix(1 0 0 -1 0 193)"  d="M396.30118 64.2928C 395.2212 62.9228 393.7612 62.048798 391.92117 61.6728L391.92117 61.6728L399.2162 47.4198L399.2162 47.4198L391.55518 47.4198L391.55518 47.4198L384.5972 61.4768L384.5972 61.4768L378.2592 61.4768L378.2592 61.4768L378.2592 47.4198L378.2592 47.4198L371.2722 47.4198L371.2722 47.4198L371.2722 85.4488L371.2722 85.4488L390.0062 85.4488C 392.3712 85.4488 394.2822 84.720795 395.7382 83.26579C 397.19318 81.8108 397.92117 79.898796 397.92117 77.5318L397.92117 77.5318L397.92117 69.3918C 397.92117 67.3638 397.3812 65.663795 396.30118 64.2928M378.2592 67.8138L389.13217 67.8138C 389.77118 67.8138 390.2302 67.9598 390.51218 68.25079C 390.7942 68.541794 390.93417 69.0068 390.93417 69.6448L390.93417 69.6448L390.93417 76.8008C 390.93417 77.4388 390.7942 77.902794 390.51218 78.1958C 390.2302 78.485794 389.77118 78.6308 389.13217 78.6308L389.13217 78.6308L378.2592 78.6308z" stroke="none" fill="#29589B" fill-rule="nonzero" />
    <path id=""  transform="matrix(1 0 0 -1 0 193)"  d="M407.1076 87.7559L414.0936 87.7559L414.0936 87.7559L414.1146 47.4199L414.1146 47.4199L407.1276 47.4199z" stroke="none" fill="#29589B" fill-rule="nonzero" />
    <path id=""  transform="matrix(1 0 0 -1 0 193)"  d="M144.7896 87.7559L172.77159 87.7559L172.77159 87.7559L172.7926 80.2419L172.7926 80.2419L153.4076 80.2419L153.4076 80.2419L153.4076 73.092896L153.4076 73.092896L168.7146 73.0999L168.7146 73.0999L168.7146 64.7839L168.7146 64.7839L153.4076 64.7769L153.4076 64.7769L153.4076 57.458897L153.4076 57.458897L172.7926 57.458897L172.7926 57.458897L172.7926 47.4199L172.7926 47.4199L144.8106 47.4199z" stroke="none" fill="#000000" fill-rule="nonzero" />
    <path id=""  transform="matrix(1 0 0 -1 0 193)"  d="M148.0319 85.449L172.79291 85.449L172.79291 85.449L172.79291 78.631L172.79291 78.631L155.01791 78.631L155.01791 78.631L155.01791 69.870995L155.01791 69.870995L168.73691 69.870995L168.73691 69.870995L168.73691 63.165997L168.73691 63.165997L155.01791 63.165997L155.01791 63.165997L155.01791 54.237L155.01791 54.237L172.79291 54.237L172.79291 54.237L172.79291 47.42L172.79291 47.42L148.0319 47.42z" stroke="none" fill="#29589B" fill-rule="nonzero" />
    <path id=""  transform="matrix(1 0 0 -1 0 193)"  d="M302.5165 87.7559L330.4985 87.7559L330.4985 87.7559L330.5195 80.2419L330.5195 80.2419L311.13452 80.2419L311.13452 80.2419L311.13452 73.092896L311.13452 73.092896L326.4425 73.0999L326.4425 73.0999L326.4425 64.7839L326.4425 64.7839L311.13452 64.7769L311.13452 64.7769L311.13452 57.458897L311.13452 57.458897L330.5195 57.458897L330.5195 57.458897L330.5195 47.4199L330.5195 47.4199L302.5375 47.4199z" stroke="none" fill="#000000" fill-rule="nonzero" />
    <path id=""  transform="matrix(1 0 0 -1 0 193)"  d="M305.7592 85.449L330.52017 85.449L330.52017 85.449L330.52017 78.631L330.52017 78.631L312.74518 78.631L312.74518 78.631L312.74518 69.870995L312.74518 69.870995L326.46417 69.870995L326.46417 69.870995L326.46417 63.165997L326.46417 63.165997L312.74518 63.165997L312.74518 63.165997L312.74518 54.237L312.74518 54.237L330.52017 54.237L330.52017 54.237L330.52017 47.42L330.52017 47.42L305.7592 47.42z" stroke="none" fill="#29589B" fill-rule="nonzero" />
    <path id=""  transform="matrix(1 0 0 -1 0 193)"  d="M335.2729 87.7559L363.25488 87.7559L363.25488 87.7559L363.27588 80.2419L363.27588 80.2419L343.8909 80.2419L343.8909 80.2419L343.8909 73.092896L343.8909 73.092896L359.19888 73.0999L359.19888 73.0999L359.19888 64.7839L359.19888 64.7839L343.8909 64.7769L343.8909 64.7769L343.8909 57.458897L343.8909 57.458897L363.27588 57.458897L363.27588 57.458897L363.27588 47.4199L363.27588 47.4199L335.29388 47.4199z" stroke="none" fill="#000000" fill-rule="nonzero" />
    <path id=""  transform="matrix(1 0 0 -1 0 193)"  d="M338.5156 85.449L363.27658 85.449L363.27658 85.449L363.27658 78.631L363.27658 78.631L345.5016 78.631L345.5016 78.631L345.5016 69.870995L345.5016 69.870995L359.22058 69.870995L359.22058 69.870995L359.22058 63.165997L359.22058 63.165997L345.5016 63.165997L345.5016 63.165997L345.5016 54.237L345.5016 54.237L363.27658 54.237L363.27658 54.237L363.27658 47.42L363.27658 47.42L338.5156 47.42z" stroke="none" fill="#29589B" fill-rule="nonzero" />
		</g>
	</g>
</g>
</svg>